<mxfile host="app.diagrams.net" agent="Mozilla/5.0 (Windows NT 10.0; Win64; x64) AppleWebKit/537.36 (KHTML, like Gecko) Chrome/130.0.0.0 Safari/537.36" version="24.8.4">
  <diagram name="Page-1" id="FNR885tLL30_jkmZ6KXW">
    <mxGraphModel grid="1" page="1" gridSize="10" guides="1" tooltips="1" connect="1" arrows="1" fold="1" pageScale="1" pageWidth="850" pageHeight="1100" math="0" shadow="0">
      <root>
        <mxCell id="0" />
        <mxCell id="1" parent="0" />
        <mxCell id="hcPrapvFZ36t2RwaCSbK-11" value="" style="rounded=0;whiteSpace=wrap;html=1;movable=0;resizable=0;rotatable=0;deletable=0;editable=0;locked=1;connectable=0;" vertex="1" parent="1">
          <mxGeometry x="226" y="170" width="394" height="391" as="geometry" />
        </mxCell>
        <mxCell id="hcPrapvFZ36t2RwaCSbK-16" style="edgeStyle=orthogonalEdgeStyle;rounded=0;orthogonalLoop=1;jettySize=auto;html=1;entryX=0.5;entryY=0;entryDx=0;entryDy=0;" edge="1" parent="1" source="hcPrapvFZ36t2RwaCSbK-8" target="hcPrapvFZ36t2RwaCSbK-5">
          <mxGeometry relative="1" as="geometry" />
        </mxCell>
        <mxCell id="hcPrapvFZ36t2RwaCSbK-17" style="edgeStyle=orthogonalEdgeStyle;rounded=0;orthogonalLoop=1;jettySize=auto;html=1;exitX=1;exitY=0.5;exitDx=0;exitDy=0;entryX=0.5;entryY=0;entryDx=0;entryDy=0;" edge="1" parent="1" source="hcPrapvFZ36t2RwaCSbK-8" target="hcPrapvFZ36t2RwaCSbK-6">
          <mxGeometry relative="1" as="geometry" />
        </mxCell>
        <mxCell id="hcPrapvFZ36t2RwaCSbK-8" value="" style="rounded=0;whiteSpace=wrap;html=1;" vertex="1" parent="1">
          <mxGeometry x="365" y="226" width="120" height="128" as="geometry" />
        </mxCell>
        <mxCell id="hcPrapvFZ36t2RwaCSbK-9" value="&lt;div style=&quot;&quot;&gt;&lt;span style=&quot;font-size: 9px; background-color: transparent; font-family: &amp;quot;Proxima Nova&amp;quot;, sans-serif; white-space-collapse: preserve; font-weight: 700;&quot;&gt;&lt;u&gt;Client Router/Subnet&lt;/u&gt;&lt;/span&gt;&lt;/div&gt;&lt;div style=&quot;&quot;&gt;&lt;span style=&quot;font-size: 9px; background-color: transparent; font-family: &amp;quot;Proxima Nova&amp;quot;, sans-serif; white-space-collapse: preserve; font-weight: 700;&quot;&gt;IP&lt;/span&gt;&lt;span style=&quot;font-size: 9px; background-color: transparent; font-family: &amp;quot;Proxima Nova&amp;quot;, sans-serif; white-space-collapse: preserve;&quot;&gt;:&lt;/span&gt;&lt;span style=&quot;font-size: 9px; background-color: transparent; font-family: &amp;quot;Proxima Nova&amp;quot;, sans-serif; white-space-collapse: preserve; font-weight: 700;&quot;&gt; &lt;/span&gt;&lt;span style=&quot;font-size: 9px; background-color: transparent; font-family: &amp;quot;Proxima Nova&amp;quot;, sans-serif; white-space-collapse: preserve;&quot;&gt;10.42.85.100&lt;/span&gt;&lt;/div&gt;" style="rounded=0;whiteSpace=wrap;html=1;align=center;" vertex="1" parent="1">
          <mxGeometry x="365" y="316" width="120" height="38" as="geometry" />
        </mxCell>
        <mxCell id="hcPrapvFZ36t2RwaCSbK-6" value="" style="rounded=0;whiteSpace=wrap;html=1;" vertex="1" parent="1">
          <mxGeometry x="495" y="396" width="120" height="160" as="geometry" />
        </mxCell>
        <mxCell id="hcPrapvFZ36t2RwaCSbK-7" value="&lt;div style=&quot;&quot;&gt;&lt;span style=&quot;background-color: transparent; font-variant-numeric: normal; font-variant-east-asian: normal; font-variant-alternates: normal; font-variant-position: normal; vertical-align: baseline;&quot;&gt;&lt;font style=&quot;&quot;&gt;&lt;font size=&quot;1&quot; face=&quot;Proxima Nova, sans-serif&quot;&gt;&lt;span style=&quot;white-space-collapse: preserve;&quot;&gt;&lt;b&gt;&lt;u&gt;DESKTOP-SDN1RPT&lt;/u&gt;&lt;/b&gt;&lt;/span&gt;&lt;/font&gt;&lt;/font&gt;&lt;/span&gt;&lt;/div&gt;&lt;div style=&quot;&quot;&gt;&lt;span style=&quot;background-color: transparent; font-variant-numeric: normal; font-variant-east-asian: normal; font-variant-alternates: normal; font-variant-position: normal; vertical-align: baseline;&quot;&gt;&lt;font style=&quot;&quot;&gt;&lt;font size=&quot;1&quot; face=&quot;Proxima Nova, sans-serif&quot;&gt;&lt;span style=&quot;white-space-collapse: preserve;&quot;&gt;&lt;b&gt;IP: &lt;/b&gt;&lt;/span&gt;&lt;/font&gt;&lt;span style=&quot;font-family: &amp;quot;Proxima Nova&amp;quot;, sans-serif; font-size: 9px; font-weight: normal; white-space-collapse: preserve;&quot;&gt;10.42.85.115&lt;/span&gt;&lt;/font&gt;&lt;/span&gt;&lt;/div&gt;&lt;div style=&quot;font-weight: 700;&quot;&gt;&lt;span style=&quot;font-family: &amp;quot;Proxima Nova&amp;quot;, sans-serif; background-color: transparent; font-variant-numeric: normal; font-variant-east-asian: normal; font-variant-alternates: normal; font-variant-position: normal; vertical-align: baseline; white-space-collapse: preserve;&quot;&gt;&lt;font style=&quot;font-size: 9px;&quot;&gt;SUBNM: &lt;span style=&quot;font-weight: normal;&quot;&gt;255.255.255.0&lt;/span&gt;&lt;/font&gt;&lt;/span&gt;&lt;/div&gt;&lt;div style=&quot;font-weight: 700;&quot;&gt;&lt;span style=&quot;font-family: &amp;quot;Proxima Nova&amp;quot;, sans-serif; background-color: transparent; font-variant-numeric: normal; font-variant-east-asian: normal; font-variant-alternates: normal; font-variant-position: normal; vertical-align: baseline; white-space-collapse: preserve;&quot;&gt;&lt;font style=&quot;font-size: 9px;&quot;&gt;DNS: &lt;/font&gt;&lt;/span&gt;&lt;span style=&quot;font-family: &amp;quot;Proxima Nova&amp;quot;, sans-serif; font-size: 9px; white-space-collapse: preserve; background-color: initial; font-weight: normal;&quot;&gt;10.42.85.10&lt;/span&gt;&lt;/div&gt;&lt;div style=&quot;font-weight: 700;&quot;&gt;&lt;font style=&quot;font-size: 9px;&quot; face=&quot;Proxima Nova, sans-serif&quot;&gt;&lt;span style=&quot;white-space-collapse: preserve;&quot;&gt;Gateway: &lt;span style=&quot;font-weight: normal;&quot;&gt;10.42.85.100&lt;/span&gt;&lt;/span&gt;&lt;/font&gt;&lt;/div&gt;" style="rounded=0;whiteSpace=wrap;html=1;align=center;" vertex="1" parent="1">
          <mxGeometry x="495" y="486" width="120" height="70" as="geometry" />
        </mxCell>
        <mxCell id="hcPrapvFZ36t2RwaCSbK-5" value="" style="rounded=0;whiteSpace=wrap;html=1;" vertex="1" parent="1">
          <mxGeometry x="231" y="396" width="120" height="160" as="geometry" />
        </mxCell>
        <mxCell id="ZxsQg9fQe-zoNtmFvvyF-1" value="" style="shape=mxgraph.cisco.routers.router;sketch=0;html=1;pointerEvents=1;dashed=0;fillColor=#036897;strokeColor=#ffffff;strokeWidth=2;verticalLabelPosition=bottom;verticalAlign=top;align=center;outlineConnect=0;" vertex="1" parent="1">
          <mxGeometry x="386" y="246" width="78" height="53" as="geometry" />
        </mxCell>
        <mxCell id="ZxsQg9fQe-zoNtmFvvyF-2" value="" style="shape=mxgraph.cisco.computers_and_peripherals.ibm_mainframe;sketch=0;html=1;pointerEvents=1;dashed=0;fillColor=#036897;strokeColor=#ffffff;strokeWidth=2;verticalLabelPosition=bottom;verticalAlign=top;align=center;outlineConnect=0;" vertex="1" parent="1">
          <mxGeometry x="265" y="406" width="50" height="70" as="geometry" />
        </mxCell>
        <mxCell id="ZxsQg9fQe-zoNtmFvvyF-3" value="" style="shape=mxgraph.cisco.computers_and_peripherals.pc;sketch=0;html=1;pointerEvents=1;dashed=0;fillColor=#036897;strokeColor=#ffffff;strokeWidth=2;verticalLabelPosition=bottom;verticalAlign=top;align=center;outlineConnect=0;" vertex="1" parent="1">
          <mxGeometry x="516" y="406" width="78" height="70" as="geometry" />
        </mxCell>
        <mxCell id="hcPrapvFZ36t2RwaCSbK-3" value="&lt;div style=&quot;&quot;&gt;&lt;u style=&quot;font-size: 9px; background-color: transparent; font-family: &amp;quot;Proxima Nova&amp;quot;, sans-serif; white-space-collapse: preserve; font-weight: 700;&quot;&gt;CITADEL-DC01&lt;/u&gt;&lt;/div&gt;&lt;div style=&quot;font-weight: 700;&quot;&gt;&lt;span style=&quot;font-family: &amp;quot;Proxima Nova&amp;quot;, sans-serif; background-color: transparent; font-variant-numeric: normal; font-variant-east-asian: normal; font-variant-alternates: normal; font-variant-position: normal; vertical-align: baseline; white-space-collapse: preserve;&quot;&gt;&lt;font style=&quot;font-size: 9px;&quot;&gt;IP: &lt;span style=&quot;font-weight: normal;&quot;&gt;10.42.85.10&lt;/span&gt;&lt;/font&gt;&lt;/span&gt;&lt;/div&gt;&lt;div style=&quot;font-weight: 700;&quot;&gt;&lt;span style=&quot;font-family: &amp;quot;Proxima Nova&amp;quot;, sans-serif; background-color: transparent; font-variant-numeric: normal; font-variant-east-asian: normal; font-variant-alternates: normal; font-variant-position: normal; vertical-align: baseline; white-space-collapse: preserve;&quot;&gt;&lt;font style=&quot;font-size: 9px;&quot;&gt;SUBNM: &lt;span style=&quot;font-weight: normal;&quot;&gt;255.255.255.0&lt;/span&gt;&lt;/font&gt;&lt;/span&gt;&lt;/div&gt;&lt;div style=&quot;font-weight: 700;&quot;&gt;&lt;span style=&quot;font-family: &amp;quot;Proxima Nova&amp;quot;, sans-serif; background-color: transparent; font-variant-numeric: normal; font-variant-east-asian: normal; font-variant-alternates: normal; font-variant-position: normal; vertical-align: baseline; white-space-collapse: preserve;&quot;&gt;&lt;font style=&quot;font-size: 9px;&quot;&gt;DNS: &lt;span style=&quot;font-weight: normal;&quot;&gt;127.0.0.1&lt;/span&gt;&lt;/font&gt;&lt;/span&gt;&lt;/div&gt;&lt;div style=&quot;font-weight: 700;&quot;&gt;&lt;font style=&quot;font-size: 9px;&quot; face=&quot;Proxima Nova, sans-serif&quot;&gt;&lt;span style=&quot;white-space-collapse: preserve;&quot;&gt;Gateway: &lt;span style=&quot;font-weight: normal;&quot;&gt;10.42.85.100&lt;/span&gt;&lt;/span&gt;&lt;/font&gt;&lt;/div&gt;" style="rounded=0;whiteSpace=wrap;html=1;align=center;" vertex="1" parent="1">
          <mxGeometry x="231" y="486" width="120" height="70" as="geometry" />
        </mxCell>
        <mxCell id="hcPrapvFZ36t2RwaCSbK-15" value="&lt;font style=&quot;font-size: 14px;&quot;&gt;&lt;b style=&quot;white-space-collapse: preserve; font-family: &amp;quot;Proxima Nova&amp;quot;, sans-serif;&quot;&gt;Network&lt;/b&gt;&lt;span style=&quot;white-space-collapse: preserve; font-family: &amp;quot;Proxima Nova&amp;quot;, sans-serif;&quot;&gt;: 10.42.85.0/24&lt;/span&gt;&lt;/font&gt;" style="rounded=0;whiteSpace=wrap;html=1;" vertex="1" parent="1">
          <mxGeometry x="226" y="170" width="394" height="30" as="geometry" />
        </mxCell>
      </root>
    </mxGraphModel>
  </diagram>
</mxfile>
